<svg viewBox="0 0 1140 46" xmlns="http://www.w3.org/2000/svg" xmlns:xlink="http://www.w3.org/1999/xlink" width="1140.000000" height="46.000000" fill="none" customFrame="#000000">
	<defs>
		<clipPath id="clipPath_30">
			<rect width="94.000000" height="46.000000" x="1046.000000" y="0.000000" fill="rgb(255,255,255)" />
		</clipPath>
		<g id="pixso_custom_effect_48">
			<effect x="0.000000" y="5.000000" visibility="visible" fill="rgb(255,0,67)" fill-opacity="0.100000001" effectType="dropShadow" showShadowBehind="1" stdDeviation="50" radius="0" />
		</g>
		<filter id="filter_48" width="194.000000" height="146.000000" x="996.000000" y="-45.000000" filterUnits="userSpaceOnUse" customEffect="url(#pixso_custom_effect_48)" color-interpolation-filters="sRGB">
			<feFlood flood-opacity="0" result="BackgroundImageFix" />
			<feOffset dx="0.000000" dy="5.000000" in="SourceAlpha" />
			<feGaussianBlur stdDeviation="16.666666" />
			<feColorMatrix type="matrix" values="0 0 0 0 1 0 0 0 0 0 0 0 0 0 0.262745 0 0 0 0.1 0 " />
			<feBlend result="effect_dropShadow_1" in2="BackgroundImageFix" mode="normal" />
			<feBlend result="shape" in="SourceGraphic" in2="effect_dropShadow_1" mode="normal" />
		</filter>
		<clipPath id="clipPath_31">
			<rect width="92.000000" height="24.000000" x="0.000000" y="11.000000" fill="rgb(255,255,255)" />
		</clipPath>
	</defs>
	<g id="navigation">
		<g id="try for free" clip-path="url(#clipPath_30)" customFrame="url(#clipPath_30)">
			<rect id="try for free" width="94.000000" height="46.000000" x="1046.000000" y="0.000000" fill="rgb(255,255,255)" fill-opacity="0" />
			<g filter="url(#filter_48)">
				<rect id="bg" width="94.000000" height="46.000000" x="1046.000000" y="0.000000" rx="23.000000" fill="rgb(255,0,67)" />
			</g>
			<path id="Try Beta" d="M1071.34 17.832L1071.34 27.7852L1069.29 27.7852L1069.29 17.832L1071.34 17.832ZM1074.4 17.832L1074.4 19.4385L1066.28 19.4385L1066.28 17.832L1074.4 17.832ZM1076.94 22.002L1076.94 27.7852L1074.97 27.7852L1074.97 20.3887L1076.82 20.3887L1076.94 22.002ZM1079.17 20.3408L1079.13 22.166C1079.04 22.1523 1078.92 22.1409 1078.78 22.1318C1078.65 22.1182 1078.53 22.1113 1078.42 22.1113C1078.14 22.1113 1077.9 22.1478 1077.7 22.2207C1077.5 22.2891 1077.33 22.3916 1077.19 22.5283C1077.06 22.665 1076.96 22.8314 1076.89 23.0273C1076.83 23.2233 1076.79 23.4466 1076.78 23.6973L1076.38 23.5742C1076.38 23.0957 1076.43 22.6559 1076.53 22.2549C1076.62 21.8493 1076.76 21.4961 1076.94 21.1953C1077.13 20.8945 1077.36 20.6621 1077.63 20.498C1077.9 20.334 1078.2 20.252 1078.55 20.252C1078.66 20.252 1078.77 20.2611 1078.89 20.2793C1079 20.293 1079.09 20.3135 1079.17 20.3408ZM1082.41 26.9512L1084.38 20.3887L1086.49 20.3887L1083.51 28.8994C1083.45 29.0863 1083.36 29.2868 1083.25 29.501C1083.15 29.7152 1083.01 29.918 1082.82 30.1094C1082.65 30.3053 1082.42 30.4648 1082.15 30.5879C1081.88 30.7109 1081.55 30.7725 1081.16 30.7725C1080.97 30.7725 1080.82 30.7611 1080.7 30.7383C1080.58 30.7155 1080.44 30.6836 1080.27 30.6426L1080.27 29.2002C1080.32 29.2002 1080.38 29.2002 1080.43 29.2002C1080.49 29.2048 1080.54 29.207 1080.59 29.207C1080.85 29.207 1081.06 29.1774 1081.22 29.1182C1081.39 29.0589 1081.52 28.9678 1081.62 28.8447C1081.72 28.7262 1081.8 28.5713 1081.86 28.3799L1082.41 26.9512ZM1081.59 20.3887L1083.2 25.748L1083.48 27.833L1082.14 27.9766L1079.48 20.3887L1081.59 20.3887ZM1094.78 23.417L1092.22 23.417L1092.21 22.0088L1094.36 22.0088C1094.73 22.0088 1095.04 21.9609 1095.29 21.8652C1095.53 21.765 1095.71 21.6214 1095.83 21.4346C1095.95 21.2432 1096.01 21.0107 1096.01 20.7373C1096.01 20.4274 1095.95 20.1768 1095.83 19.9854C1095.72 19.7939 1095.54 19.6549 1095.29 19.5684C1095.05 19.4818 1094.74 19.4385 1094.36 19.4385L1092.93 19.4385L1092.93 27.7852L1090.88 27.7852L1090.88 17.832L1094.36 17.832C1094.93 17.832 1095.45 17.8867 1095.91 17.9961C1096.37 18.1055 1096.76 18.2718 1097.08 18.4951C1097.4 18.7184 1097.64 19.001 1097.81 19.3428C1097.98 19.68 1098.06 20.0811 1098.06 20.5459C1098.06 20.9561 1097.97 21.3343 1097.78 21.6807C1097.6 22.027 1097.31 22.3096 1096.91 22.5283C1096.52 22.7471 1096.01 22.8678 1095.37 22.8906L1094.78 23.417ZM1094.69 27.7852L1091.66 27.7852L1092.46 26.1855L1094.69 26.1855C1095.05 26.1855 1095.34 26.1286 1095.57 26.0146C1095.8 25.8962 1095.97 25.7367 1096.08 25.5361C1096.19 25.3356 1096.24 25.1055 1096.24 24.8457C1096.24 24.554 1096.19 24.3011 1096.09 24.0869C1096 23.8727 1095.84 23.7087 1095.63 23.5947C1095.41 23.4762 1095.13 23.417 1094.78 23.417L1092.8 23.417L1092.82 22.0088L1095.28 22.0088L1095.75 22.5625C1096.36 22.5534 1096.84 22.6605 1097.21 22.8838C1097.59 23.1025 1097.86 23.3874 1098.03 23.7383C1098.2 24.0892 1098.29 24.4652 1098.29 24.8662C1098.29 25.5042 1098.15 26.042 1097.87 26.4795C1097.59 26.9124 1097.18 27.2383 1096.65 27.457C1096.11 27.6758 1095.46 27.7852 1094.69 27.7852ZM1103.11 27.9219C1102.53 27.9219 1102.02 27.8307 1101.56 27.6484C1101.1 27.4616 1100.72 27.2041 1100.4 26.876C1100.08 26.5479 1099.84 26.1673 1099.67 25.7344C1099.51 25.2969 1099.42 24.832 1099.42 24.3398L1099.42 24.0664C1099.42 23.5059 1099.5 22.9932 1099.66 22.5283C1099.82 22.0635 1100.05 21.6602 1100.34 21.3184C1100.64 20.9766 1101.01 20.7145 1101.44 20.5322C1101.87 20.3454 1102.35 20.252 1102.89 20.252C1103.41 20.252 1103.88 20.3385 1104.28 20.5117C1104.69 20.6849 1105.03 20.931 1105.3 21.25C1105.58 21.569 1105.79 21.9518 1105.93 22.3984C1106.07 22.8405 1106.14 23.3327 1106.14 23.875L1106.14 24.6953L1100.26 24.6953L1100.26 23.3828L1104.21 23.3828L1104.21 23.2324C1104.21 22.959 1104.16 22.7152 1104.06 22.501C1103.96 22.2822 1103.81 22.1091 1103.62 21.9814C1103.42 21.8538 1103.17 21.79 1102.87 21.79C1102.61 21.79 1102.38 21.847 1102.2 21.9609C1102.01 22.0749 1101.86 22.2344 1101.74 22.4395C1101.62 22.6445 1101.54 22.8861 1101.48 23.1641C1101.42 23.4375 1101.4 23.7383 1101.4 24.0664L1101.4 24.3398C1101.4 24.6361 1101.44 24.9095 1101.52 25.1602C1101.61 25.4108 1101.73 25.6273 1101.88 25.8096C1102.04 25.9919 1102.23 26.1331 1102.46 26.2334C1102.68 26.3337 1102.94 26.3838 1103.23 26.3838C1103.58 26.3838 1103.91 26.3154 1104.22 26.1787C1104.53 26.0374 1104.8 25.8255 1105.02 25.543L1105.98 26.582C1105.82 26.8053 1105.61 27.0195 1105.34 27.2246C1105.08 27.4297 1104.76 27.5983 1104.38 27.7305C1104.01 27.8581 1103.58 27.9219 1103.11 27.9219ZM1110.88 20.3887L1110.88 21.7832L1106.58 21.7832L1106.58 20.3887L1110.88 20.3887ZM1107.64 18.5635L1109.61 18.5635L1109.61 25.5566C1109.61 25.7708 1109.64 25.9349 1109.7 26.0488C1109.75 26.1628 1109.84 26.2425 1109.96 26.2881C1110.07 26.3291 1110.21 26.3496 1110.39 26.3496C1110.51 26.3496 1110.62 26.3451 1110.71 26.3359C1110.81 26.3223 1110.9 26.3086 1110.97 26.2949L1110.97 27.7441C1110.81 27.7988 1110.62 27.8421 1110.43 27.874C1110.23 27.9059 1110.01 27.9219 1109.78 27.9219C1109.34 27.9219 1108.97 27.8512 1108.64 27.71C1108.32 27.5641 1108.08 27.3317 1107.9 27.0127C1107.73 26.6937 1107.64 26.2744 1107.64 25.7549L1107.64 18.5635ZM1116 26.1172L1116 22.8223C1116 22.5853 1115.96 22.3825 1115.88 22.2139C1115.8 22.0407 1115.68 21.9062 1115.52 21.8105C1115.36 21.7148 1115.15 21.667 1114.9 21.667C1114.68 21.667 1114.49 21.7057 1114.33 21.7832C1114.17 21.8561 1114.05 21.9632 1113.96 22.1045C1113.87 22.2412 1113.83 22.403 1113.83 22.5898L1111.86 22.5898C1111.86 22.2754 1111.94 21.9769 1112.08 21.6943C1112.23 21.4118 1112.44 21.1634 1112.72 20.9492C1112.99 20.7305 1113.33 20.5596 1113.71 20.4365C1114.1 20.3135 1114.53 20.252 1115.01 20.252C1115.58 20.252 1116.09 20.3477 1116.54 20.5391C1116.98 20.7305 1117.34 21.0176 1117.59 21.4004C1117.85 21.7832 1117.98 22.2617 1117.98 22.8359L1117.98 26.001C1117.98 26.4066 1118.01 26.7393 1118.06 26.999C1118.11 27.2542 1118.18 27.4775 1118.27 27.6689L1118.27 27.7852L1116.29 27.7852C1116.19 27.5846 1116.12 27.334 1116.07 27.0332C1116.02 26.7279 1116 26.4225 1116 26.1172ZM1116.26 23.2803L1116.27 24.3945L1115.17 24.3945C1114.91 24.3945 1114.69 24.4242 1114.49 24.4834C1114.3 24.5426 1114.15 24.627 1114.02 24.7363C1113.9 24.8411 1113.81 24.9642 1113.75 25.1055C1113.69 25.2467 1113.67 25.4017 1113.67 25.5703C1113.67 25.7389 1113.71 25.8916 1113.78 26.0283C1113.86 26.1605 1113.97 26.2653 1114.12 26.3428C1114.26 26.4157 1114.43 26.4521 1114.63 26.4521C1114.93 26.4521 1115.18 26.3929 1115.4 26.2744C1115.62 26.1559 1115.79 26.0101 1115.91 25.8369C1116.03 25.6637 1116.1 25.4997 1116.1 25.3447L1116.62 26.1787C1116.55 26.3656 1116.45 26.5592 1116.32 26.7598C1116.2 26.9603 1116.04 27.1494 1115.85 27.3271C1115.66 27.5003 1115.43 27.6439 1115.16 27.7578C1114.89 27.8672 1114.57 27.9219 1114.2 27.9219C1113.73 27.9219 1113.3 27.8284 1112.92 27.6416C1112.54 27.4502 1112.24 27.1882 1112.02 26.8555C1111.8 26.5182 1111.69 26.1354 1111.69 25.707C1111.69 25.3197 1111.76 24.9756 1111.91 24.6748C1112.06 24.374 1112.27 24.1211 1112.55 23.916C1112.84 23.7064 1113.2 23.5492 1113.63 23.4443C1114.05 23.335 1114.55 23.2803 1115.12 23.2803L1116.26 23.2803Z" fill="rgb(255,255,255)" fill-rule="nonzero" />
		</g>
		<g id="logo" clip-path="url(#clipPath_31)" customFrame="url(#clipPath_31)">
			<rect id="logo" width="92.000000" height="24.000000" x="0.000000" y="11.000000" fill="rgb(255,255,255)" fill-opacity="0" />
			<path id="Telegraph" d="M7.62695 15.1172L7.62695 29.3359L4.70703 29.3359L4.70703 15.1172L7.62695 15.1172ZM12.002 15.1172L12.002 17.4121L0.400391 17.4121L0.400391 15.1172L12.002 15.1172ZM17.4414 29.5312C16.6211 29.5312 15.8854 29.401 15.2344 29.1406C14.5833 28.8737 14.0299 28.5059 13.5742 28.0371C13.125 27.5684 12.7799 27.0247 12.5391 26.4062C12.2982 25.7812 12.1777 25.1172 12.1777 24.4141L12.1777 24.0234C12.1777 23.2227 12.2917 22.4902 12.5195 21.8262C12.7474 21.1621 13.0729 20.5859 13.4961 20.0977C13.9258 19.6094 14.4466 19.235 15.0586 18.9746C15.6706 18.7077 16.3607 18.5742 17.1289 18.5742C17.8776 18.5742 18.5417 18.6979 19.1211 18.9453C19.7005 19.1927 20.1855 19.5443 20.5762 20C20.9733 20.4557 21.2728 21.0026 21.4746 21.6406C21.6764 22.2721 21.7773 22.9753 21.7773 23.75L21.7773 24.9219L13.3789 24.9219L13.3789 23.0469L19.0137 23.0469L19.0137 22.832C19.0137 22.4414 18.9421 22.0931 18.7988 21.7871C18.6621 21.4746 18.4538 21.2272 18.1738 21.0449C17.8939 20.8626 17.5358 20.7715 17.0996 20.7715C16.7285 20.7715 16.4095 20.8529 16.1426 21.0156C15.8757 21.1784 15.6576 21.4062 15.4883 21.6992C15.3255 21.9922 15.2018 22.3372 15.1172 22.7344C15.0391 23.125 15 23.5547 15 24.0234L15 24.4141C15 24.8372 15.0586 25.2279 15.1758 25.5859C15.2995 25.944 15.472 26.2533 15.6934 26.5137C15.9212 26.7741 16.1947 26.9759 16.5137 27.1191C16.8392 27.2624 17.207 27.334 17.6172 27.334C18.125 27.334 18.597 27.2363 19.0332 27.041C19.4759 26.8392 19.8568 26.5365 20.1758 26.1328L21.543 27.6172C21.3216 27.9362 21.0189 28.2422 20.6348 28.5352C20.2572 28.8281 19.8014 29.069 19.2676 29.2578C18.7337 29.4401 18.125 29.5312 17.4414 29.5312ZM26.3477 14.3359L26.3477 29.3359L23.5254 29.3359L23.5254 14.3359L26.3477 14.3359ZM33.5352 29.5312C32.7148 29.5312 31.9792 29.401 31.3281 29.1406C30.6771 28.8737 30.1237 28.5059 29.668 28.0371C29.2188 27.5684 28.8737 27.0247 28.6328 26.4062C28.3919 25.7812 28.2715 25.1172 28.2715 24.4141L28.2715 24.0234C28.2715 23.2227 28.3854 22.4902 28.6133 21.8262C28.8411 21.1621 29.1667 20.5859 29.5898 20.0977C30.0195 19.6094 30.5404 19.235 31.1523 18.9746C31.7643 18.7077 32.4544 18.5742 33.2227 18.5742C33.9714 18.5742 34.6354 18.6979 35.2148 18.9453C35.7943 19.1927 36.2793 19.5443 36.6699 20C37.0671 20.4557 37.3665 21.0026 37.5684 21.6406C37.7702 22.2721 37.8711 22.9753 37.8711 23.75L37.8711 24.9219L29.4727 24.9219L29.4727 23.0469L35.1074 23.0469L35.1074 22.832C35.1074 22.4414 35.0358 22.0931 34.8926 21.7871C34.7559 21.4746 34.5475 21.2272 34.2676 21.0449C33.9876 20.8626 33.6296 20.7715 33.1934 20.7715C32.8223 20.7715 32.5033 20.8529 32.2363 21.0156C31.9694 21.1784 31.7513 21.4062 31.582 21.6992C31.4193 21.9922 31.2956 22.3372 31.2109 22.7344C31.1328 23.125 31.0938 23.5547 31.0938 24.0234L31.0938 24.4141C31.0938 24.8372 31.1523 25.2279 31.2695 25.5859C31.3932 25.944 31.5658 26.2533 31.7871 26.5137C32.015 26.7741 32.2884 26.9759 32.6074 27.1191C32.9329 27.2624 33.3008 27.334 33.7109 27.334C34.2188 27.334 34.6908 27.2363 35.127 27.041C35.5697 26.8392 35.9505 26.5365 36.2695 26.1328L37.6367 27.6172C37.4154 27.9362 37.1126 28.2422 36.7285 28.5352C36.3509 28.8281 35.8952 29.069 35.3613 29.2578C34.8275 29.4401 34.2188 29.5312 33.5352 29.5312ZM46.1621 18.7695L48.7109 18.7695L48.7109 28.9844C48.7109 29.9479 48.4961 30.765 48.0664 31.4355C47.6432 32.1126 47.0508 32.6237 46.2891 32.9688C45.5273 33.3203 44.6419 33.4961 43.6328 33.4961C43.1901 33.4961 42.7214 33.4375 42.2266 33.3203C41.7383 33.2031 41.2695 33.0208 40.8203 32.7734C40.3776 32.526 40.0065 32.2135 39.707 31.8359L40.9473 30.1758C41.2728 30.5534 41.6504 30.8464 42.0801 31.0547C42.5098 31.2695 42.985 31.377 43.5059 31.377C44.0137 31.377 44.4434 31.2826 44.7949 31.0938C45.1465 30.9115 45.4167 30.6413 45.6055 30.2832C45.7943 29.9316 45.8887 29.5052 45.8887 29.0039L45.8887 21.2109L46.1621 18.7695ZM39.0527 24.1797L39.0527 23.9746C39.0527 23.1673 39.1504 22.4349 39.3457 21.7773C39.5475 21.1133 39.8307 20.5436 40.1953 20.0684C40.5664 19.5931 41.0156 19.2253 41.543 18.9648C42.0703 18.7044 42.666 18.5742 43.3301 18.5742C44.0332 18.5742 44.6224 18.7044 45.0977 18.9648C45.5729 19.2253 45.9635 19.5964 46.2695 20.0781C46.5755 20.5534 46.8132 21.1165 46.9824 21.7676C47.1582 22.4121 47.2949 23.1185 47.3926 23.8867L47.3926 24.3359C47.2949 25.0716 47.1484 25.7552 46.9531 26.3867C46.7578 27.0182 46.5007 27.5716 46.1816 28.0469C45.8626 28.5156 45.4655 28.8802 44.9902 29.1406C44.5215 29.401 43.9616 29.5312 43.3105 29.5312C42.6595 29.5312 42.0703 29.3978 41.543 29.1309C41.0221 28.8639 40.5762 28.4896 40.2051 28.0078C39.834 27.526 39.5475 26.9596 39.3457 26.3086C39.1504 25.6576 39.0527 24.9479 39.0527 24.1797ZM41.8652 23.9746L41.8652 24.1797C41.8652 24.6159 41.9076 25.0228 41.9922 25.4004C42.0768 25.778 42.207 26.1133 42.3828 26.4062C42.5651 26.6927 42.7897 26.9173 43.0566 27.0801C43.3301 27.2363 43.6523 27.3145 44.0234 27.3145C44.5378 27.3145 44.9577 27.207 45.2832 26.9922C45.6087 26.7708 45.8529 26.4681 46.0156 26.084C46.1784 25.6999 46.2728 25.2572 46.2988 24.7559L46.2988 23.4766C46.2858 23.0664 46.2305 22.6986 46.1328 22.373C46.0352 22.041 45.8984 21.7578 45.7227 21.5234C45.5469 21.2891 45.319 21.1068 45.0391 20.9766C44.7591 20.8464 44.4271 20.7812 44.043 20.7812C43.6719 20.7812 43.3496 20.8659 43.0762 21.0352C42.8092 21.1979 42.5846 21.4225 42.4023 21.709C42.2266 21.9954 42.0931 22.334 42.002 22.7246C41.9108 23.1087 41.8652 23.5254 41.8652 23.9746ZM53.7109 21.0742L53.7109 29.3359L50.8984 29.3359L50.8984 18.7695L53.5449 18.7695L53.7109 21.0742ZM56.8945 18.7012L56.8457 21.3086C56.709 21.2891 56.543 21.2728 56.3477 21.2598C56.1589 21.2402 55.9863 21.2305 55.8301 21.2305C55.4329 21.2305 55.0879 21.2826 54.7949 21.3867C54.5085 21.4844 54.2676 21.6309 54.0723 21.8262C53.8835 22.0215 53.7402 22.2591 53.6426 22.5391C53.5514 22.819 53.4993 23.138 53.4863 23.4961L52.9199 23.3203C52.9199 22.6367 52.9883 22.0085 53.125 21.4355C53.2617 20.8561 53.4603 20.3516 53.7207 19.9219C53.9876 19.4922 54.3132 19.1602 54.6973 18.9258C55.0814 18.6914 55.5208 18.5742 56.0156 18.5742C56.1719 18.5742 56.3314 18.5872 56.4941 18.6133C56.6569 18.6328 56.7904 18.6621 56.8945 18.7012ZM63.5938 26.9531L63.5938 22.2461C63.5938 21.9076 63.5384 21.6178 63.4277 21.377C63.3171 21.1296 63.1445 20.9375 62.9102 20.8008C62.6823 20.6641 62.3861 20.5957 62.0215 20.5957C61.709 20.5957 61.4388 20.651 61.2109 20.7617C60.9831 20.8659 60.8073 21.0189 60.6836 21.2207C60.5599 21.416 60.498 21.6471 60.498 21.9141L57.6855 21.9141C57.6855 21.4648 57.7897 21.0384 57.998 20.6348C58.2064 20.2311 58.5091 19.8763 58.9062 19.5703C59.3034 19.2578 59.7754 19.0137 60.3223 18.8379C60.8757 18.6621 61.4941 18.5742 62.1777 18.5742C62.998 18.5742 63.7272 18.7109 64.3652 18.9844C65.0033 19.2578 65.5046 19.668 65.8691 20.2148C66.2402 20.7617 66.4258 21.4453 66.4258 22.2656L66.4258 26.7871C66.4258 27.3665 66.4616 27.8418 66.5332 28.2129C66.6048 28.5775 66.709 28.8965 66.8457 29.1699L66.8457 29.3359L64.0039 29.3359C63.8672 29.0495 63.763 28.6914 63.6914 28.2617C63.6263 27.8255 63.5938 27.3893 63.5938 26.9531ZM63.9648 22.9004L63.9844 24.4922L62.4121 24.4922C62.041 24.4922 61.7188 24.5345 61.4453 24.6191C61.1719 24.7038 60.9473 24.8242 60.7715 24.9805C60.5957 25.1302 60.4655 25.306 60.3809 25.5078C60.3027 25.7096 60.2637 25.931 60.2637 26.1719C60.2637 26.4128 60.319 26.6309 60.4297 26.8262C60.5404 27.015 60.6999 27.1647 60.9082 27.2754C61.1165 27.3796 61.3607 27.4316 61.6406 27.4316C62.0638 27.4316 62.4316 27.347 62.7441 27.1777C63.0566 27.0085 63.2975 26.8001 63.4668 26.5527C63.6426 26.3053 63.7337 26.071 63.7402 25.8496L64.4824 27.041C64.3783 27.3079 64.235 27.5846 64.0527 27.8711C63.877 28.1576 63.6523 28.4277 63.3789 28.6816C63.1055 28.929 62.7767 29.1341 62.3926 29.2969C62.0085 29.4531 61.5527 29.5312 61.0254 29.5312C60.3548 29.5312 59.7461 29.3978 59.1992 29.1309C58.6589 28.8574 58.2292 28.4831 57.9102 28.0078C57.5977 27.526 57.4414 26.9792 57.4414 26.3672C57.4414 25.8138 57.5456 25.3223 57.7539 24.8926C57.9622 24.4629 58.2682 24.1016 58.6719 23.8086C59.082 23.5091 59.5931 23.2845 60.2051 23.1348C60.8171 22.9785 61.5267 22.9004 62.334 22.9004L63.9648 22.9004ZM71.4062 20.8008L71.4062 33.3984L68.5938 33.3984L68.5938 18.7695L71.2012 18.7695L71.4062 20.8008ZM78.0957 23.9355L78.0957 24.1406C78.0957 24.9089 78.0046 25.6217 77.8223 26.2793C77.6465 26.9368 77.3861 27.5098 77.041 27.998C76.696 28.4798 76.2663 28.8574 75.752 29.1309C75.2441 29.3978 74.6582 29.5312 73.9941 29.5312C73.3496 29.5312 72.7897 29.401 72.3145 29.1406C71.8392 28.8802 71.4388 28.5156 71.1133 28.0469C70.7943 27.5716 70.5371 27.0215 70.3418 26.3965C70.1465 25.7715 69.9967 25.1009 69.8926 24.3848L69.8926 23.8477C69.9967 23.0794 70.1465 22.3763 70.3418 21.7383C70.5371 21.0938 70.7943 20.5371 71.1133 20.0684C71.4388 19.5931 71.8359 19.2253 72.3047 18.9648C72.7799 18.7044 73.3366 18.5742 73.9746 18.5742C74.6452 18.5742 75.2344 18.7012 75.7422 18.9551C76.2565 19.209 76.6862 19.5736 77.0312 20.0488C77.3828 20.5241 77.6465 21.0905 77.8223 21.748C78.0046 22.4056 78.0957 23.1348 78.0957 23.9355ZM75.2734 24.1406L75.2734 23.9355C75.2734 23.4863 75.2344 23.0729 75.1562 22.6953C75.0846 22.3112 74.9674 21.9759 74.8047 21.6895C74.6484 21.403 74.4401 21.1816 74.1797 21.0254C73.9258 20.8626 73.6165 20.7812 73.252 20.7812C72.8678 20.7812 72.5391 20.8431 72.2656 20.9668C71.9987 21.0905 71.7806 21.2695 71.6113 21.5039C71.4421 21.7383 71.3151 22.0182 71.2305 22.3438C71.1458 22.6693 71.0938 23.0371 71.0742 23.4473L71.0742 24.8047C71.1068 25.2865 71.1979 25.7194 71.3477 26.1035C71.4974 26.4811 71.7285 26.7806 72.041 27.002C72.3535 27.2233 72.7637 27.334 73.2715 27.334C73.6426 27.334 73.9551 27.2526 74.209 27.0898C74.4629 26.9206 74.668 26.6895 74.8242 26.3965C74.987 26.1035 75.1009 25.765 75.166 25.3809C75.2376 24.9967 75.2734 24.5833 75.2734 24.1406ZM82.5879 14.3359L82.5879 29.3359L79.7754 29.3359L79.7754 14.3359L82.5879 14.3359ZM82.1875 23.6816L81.416 23.6816C81.4225 22.946 81.5202 22.2689 81.709 21.6504C81.8978 21.0254 82.168 20.485 82.5195 20.0293C82.8711 19.5671 83.291 19.209 83.7793 18.9551C84.2741 18.7012 84.821 18.5742 85.4199 18.5742C85.9408 18.5742 86.4128 18.6491 86.8359 18.7988C87.2656 18.9421 87.6335 19.1764 87.9395 19.502C88.252 19.821 88.4928 20.2409 88.6621 20.7617C88.8314 21.2826 88.916 21.9141 88.916 22.6562L88.916 29.3359L86.084 29.3359L86.084 22.6367C86.084 22.168 86.0156 21.8001 85.8789 21.5332C85.7487 21.2598 85.5566 21.0677 85.3027 20.957C85.0553 20.8398 84.7494 20.7812 84.3848 20.7812C83.9811 20.7812 83.6361 20.8561 83.3496 21.0059C83.0697 21.1556 82.8451 21.3639 82.6758 21.6309C82.5065 21.8913 82.3828 22.1973 82.3047 22.5488C82.2266 22.9004 82.1875 23.278 82.1875 23.6816Z" fill="rgb(255,0,67)" fill-rule="nonzero" />
		</g>
	</g>
</svg>
